<svg width="179" height="155" viewBox="0 0 179 155" fill="none" xmlns="http://www.w3.org/2000/svg">
<rect x="126.007" width="52.9934" height="45" rx="22.5" fill="#FBFBFB" style="fill:#FBFBFB;fill:color(display-p3 0.9840 0.9840 0.9840);fill-opacity:1;"/>
<path d="M140.5 21.7758L148.414 29.6896L166 12.1034" stroke="#33362C" style="stroke:#33362C;stroke:color(display-p3 0.2015 0.2112 0.1724);stroke-opacity:1;" stroke-width="2"/>
<path d="M106.504 2.5C113.365 2.5 117.826 11.4574 116.879 18.2528C116.686 19.6408 116.586 21.0587 116.586 22.5C116.586 39.3447 130.241 53 147.086 53H157.921C159.462 53 160.977 52.8856 162.457 52.6649C169.422 51.626 179 56.2234 179 63.2654V134.5C179 145.546 170.046 154.5 159 154.5H20C8.95431 154.5 3.8658e-07 145.546 0 134.5V22.5C0 11.4543 8.95431 2.5 20 2.5H106.504Z" fill="#FBFBFB" style="fill:#FBFBFB;fill:color(display-p3 0.9840 0.9840 0.9840);fill-opacity:1;"/>
<path d="M16.344 29.124C14.028 29.124 12.648 27.276 12.648 24.18C12.648 21.072 14.028 19.224 16.344 19.224C18.672 19.224 20.04 21.072 20.04 24.18C20.04 27.276 18.672 29.124 16.344 29.124ZM14.472 24.18C14.472 26.388 15.18 27.408 16.344 27.408C17.508 27.408 18.228 26.388 18.228 24.18C18.228 21.96 17.508 20.94 16.344 20.94C15.18 20.94 14.472 21.96 14.472 24.18ZM25.0393 29.124C22.7233 29.124 21.3433 27.276 21.3433 24.18C21.3433 21.072 22.7233 19.224 25.0393 19.224C27.3673 19.224 28.7353 21.072 28.7353 24.18C28.7353 27.276 27.3673 29.124 25.0393 29.124ZM23.1673 24.18C23.1673 26.388 23.8753 27.408 25.0393 27.408C26.2033 27.408 26.9233 26.388 26.9233 24.18C26.9233 21.96 26.2033 20.94 25.0393 20.94C23.8753 20.94 23.1673 21.96 23.1673 24.18ZM31.1426 24.24C30.5426 24.24 30.0866 23.808 30.0866 23.208C30.0866 22.62 30.5426 22.188 31.1426 22.188C31.7426 22.188 32.1986 22.62 32.1986 23.208C32.1986 23.808 31.7426 24.24 31.1426 24.24ZM30.0866 28.044C30.0866 27.444 30.5426 27.024 31.1426 27.024C31.7426 27.024 32.1986 27.444 32.1986 28.044C32.1986 28.644 31.7426 29.076 31.1426 29.076C30.5426 29.076 30.0866 28.644 30.0866 28.044ZM37.2385 29.124C34.9225 29.124 33.5425 27.276 33.5425 24.18C33.5425 21.072 34.9225 19.224 37.2385 19.224C39.5665 19.224 40.9345 21.072 40.9345 24.18C40.9345 27.276 39.5665 29.124 37.2385 29.124ZM35.3665 24.18C35.3665 26.388 36.0745 27.408 37.2385 27.408C38.4025 27.408 39.1225 26.388 39.1225 24.18C39.1225 21.96 38.4025 20.94 37.2385 20.94C36.0745 20.94 35.3665 21.96 35.3665 24.18ZM45.9338 29.124C43.6178 29.124 42.2378 27.276 42.2378 24.18C42.2378 21.072 43.6178 19.224 45.9338 19.224C48.2618 19.224 49.6298 21.072 49.6298 24.18C49.6298 27.276 48.2618 29.124 45.9338 29.124ZM44.0618 24.18C44.0618 26.388 44.7698 27.408 45.9338 27.408C47.0978 27.408 47.8178 26.388 47.8178 24.18C47.8178 21.96 47.0978 20.94 45.9338 20.94C44.7698 20.94 44.0618 21.96 44.0618 24.18Z" fill="#91948A" style="fill:#91948A;fill:color(display-p3 0.5688 0.5792 0.5425);fill-opacity:1;"/>
<path d="M23.625 61.245C23.755 61.425 23.89 61.64 24.03 61.89C24.18 62.14 24.325 62.39 24.465 62.64C24.605 62.89 24.725 63.11 24.825 63.3L23.73 63.765C23.58 63.465 23.395 63.115 23.175 62.715C22.955 62.315 22.745 61.975 22.545 61.695L23.625 61.245ZM25.365 60.585C25.495 60.775 25.635 60.995 25.785 61.245C25.945 61.495 26.095 61.745 26.235 61.995C26.385 62.235 26.505 62.445 26.595 62.625L25.5 63.105C25.35 62.785 25.16 62.43 24.93 62.04C24.71 61.65 24.495 61.315 24.285 61.035L25.365 60.585ZM17.985 66.87C18.455 67.14 18.96 67.45 19.5 67.8C20.04 68.15 20.585 68.515 21.135 68.895C21.685 69.275 22.205 69.645 22.695 70.005C23.185 70.355 23.605 70.675 23.955 70.965L22.68 72.465C22.35 72.165 21.94 71.82 21.45 71.43C20.97 71.04 20.455 70.645 19.905 70.245C19.355 69.835 18.81 69.445 18.27 69.075C17.73 68.695 17.24 68.365 16.8 68.085L17.985 66.87ZM24.99 64.275C24.91 64.405 24.825 64.56 24.735 64.74C24.655 64.92 24.585 65.095 24.525 65.265C24.385 65.735 24.185 66.255 23.925 66.825C23.665 67.395 23.36 67.975 23.01 68.565C22.66 69.155 22.26 69.73 21.81 70.29C21.12 71.15 20.275 71.975 19.275 72.765C18.275 73.545 17.06 74.21 15.63 74.76L14.07 73.41C15.09 73.09 15.98 72.715 16.74 72.285C17.51 71.845 18.185 71.375 18.765 70.875C19.345 70.375 19.85 69.87 20.28 69.36C20.63 68.94 20.96 68.48 21.27 67.98C21.58 67.48 21.85 66.98 22.08 66.48C22.31 65.97 22.47 65.515 22.56 65.115H17.355L17.985 63.585H22.395C22.615 63.585 22.835 63.57 23.055 63.54C23.275 63.51 23.46 63.47 23.61 63.42L24.99 64.275ZM19.995 62.01C19.835 62.25 19.675 62.51 19.515 62.79C19.355 63.06 19.235 63.275 19.155 63.435C18.825 64.015 18.405 64.645 17.895 65.325C17.385 65.995 16.805 66.65 16.155 67.29C15.515 67.93 14.825 68.505 14.085 69.015L12.645 67.905C13.515 67.365 14.26 66.79 14.88 66.18C15.5 65.56 16.02 64.96 16.44 64.38C16.86 63.8 17.19 63.29 17.43 62.85C17.54 62.69 17.655 62.47 17.775 62.19C17.905 61.9 18 61.635 18.06 61.395L19.995 62.01ZM31.275 61.86C31.675 61.91 32.145 61.985 32.685 62.085C33.235 62.175 33.815 62.28 34.425 62.4C35.045 62.52 35.66 62.65 36.27 62.79C36.89 62.93 37.465 63.075 37.995 63.225C38.535 63.365 38.995 63.5 39.375 63.63L38.685 65.295C38.335 65.165 37.9 65.03 37.38 64.89C36.86 64.74 36.3 64.595 35.7 64.455C35.1 64.305 34.495 64.165 33.885 64.035C33.275 63.905 32.69 63.79 32.13 63.69C31.57 63.58 31.08 63.5 30.66 63.45L31.275 61.86ZM30.6 65.88C31.13 65.97 31.74 66.085 32.43 66.225C33.12 66.355 33.83 66.505 34.56 66.675C35.3 66.845 36 67.02 36.66 67.2C37.33 67.37 37.895 67.535 38.355 67.695L37.695 69.375C37.265 69.205 36.725 69.03 36.075 68.85C35.435 68.67 34.75 68.495 34.02 68.325C33.29 68.145 32.57 67.985 31.86 67.845C31.15 67.695 30.52 67.58 29.97 67.5L30.6 65.88ZM29.82 70.185C30.33 70.265 30.905 70.37 31.545 70.5C32.185 70.63 32.85 70.775 33.54 70.935C34.24 71.085 34.925 71.245 35.595 71.415C36.265 71.585 36.89 71.76 37.47 71.94C38.06 72.11 38.56 72.275 38.97 72.435L38.235 74.115C37.825 73.945 37.33 73.77 36.75 73.59C36.17 73.41 35.54 73.235 34.86 73.065C34.18 72.885 33.49 72.72 32.79 72.57C32.1 72.42 31.44 72.285 30.81 72.165C30.18 72.045 29.625 71.945 29.145 71.865L29.82 70.185ZM43.425 66.675C43.595 66.685 43.81 66.7 44.07 66.72C44.34 66.74 44.62 66.755 44.91 66.765C45.2 66.765 45.475 66.765 45.735 66.765C45.965 66.765 46.26 66.765 46.62 66.765C46.98 66.765 47.38 66.765 47.82 66.765C48.26 66.765 48.715 66.765 49.185 66.765C49.665 66.765 50.14 66.765 50.61 66.765C51.09 66.765 51.54 66.765 51.96 66.765C52.38 66.765 52.75 66.765 53.07 66.765C53.4 66.765 53.66 66.765 53.85 66.765C54.21 66.765 54.535 66.755 54.825 66.735C55.125 66.705 55.37 66.685 55.56 66.675V68.79C55.39 68.78 55.14 68.765 54.81 68.745C54.49 68.725 54.17 68.715 53.85 68.715C53.67 68.715 53.415 68.715 53.085 68.715C52.755 68.715 52.375 68.715 51.945 68.715C51.525 68.715 51.08 68.715 50.61 68.715C50.14 68.715 49.665 68.715 49.185 68.715C48.715 68.715 48.26 68.715 47.82 68.715C47.38 68.715 46.98 68.715 46.62 68.715C46.26 68.715 45.965 68.715 45.735 68.715C45.315 68.715 44.89 68.725 44.46 68.745C44.04 68.755 43.695 68.77 43.425 68.79V66.675ZM60.075 62.115C60.315 62.145 60.57 62.17 60.84 62.19C61.11 62.2 61.365 62.205 61.605 62.205C61.795 62.205 62.09 62.205 62.49 62.205C62.9 62.205 63.36 62.205 63.87 62.205C64.39 62.205 64.905 62.205 65.415 62.205C65.935 62.205 66.395 62.205 66.795 62.205C67.195 62.205 67.48 62.205 67.65 62.205C67.89 62.205 68.145 62.2 68.415 62.19C68.695 62.17 68.96 62.145 69.21 62.115V63.855C68.96 63.835 68.7 63.82 68.43 63.81C68.16 63.8 67.9 63.795 67.65 63.795C67.48 63.795 67.195 63.795 66.795 63.795C66.395 63.795 65.935 63.795 65.415 63.795C64.905 63.795 64.395 63.795 63.885 63.795C63.375 63.795 62.915 63.795 62.505 63.795C62.095 63.795 61.8 63.795 61.62 63.795C61.37 63.795 61.105 63.8 60.825 63.81C60.545 63.82 60.295 63.835 60.075 63.855V62.115ZM58.32 65.925C58.54 65.945 58.77 65.965 59.01 65.985C59.25 66.005 59.485 66.015 59.715 66.015C59.845 66.015 60.105 66.015 60.495 66.015C60.885 66.015 61.355 66.015 61.905 66.015C62.465 66.015 63.06 66.015 63.69 66.015C64.33 66.015 64.965 66.015 65.595 66.015C66.235 66.015 66.83 66.015 67.38 66.015C67.93 66.015 68.395 66.015 68.775 66.015C69.165 66.015 69.42 66.015 69.54 66.015C69.7 66.015 69.91 66.01 70.17 66C70.43 65.98 70.66 65.955 70.86 65.925V67.68C70.68 67.66 70.465 67.65 70.215 67.65C69.975 67.64 69.75 67.635 69.54 67.635C69.42 67.635 69.165 67.635 68.775 67.635C68.395 67.635 67.93 67.635 67.38 67.635C66.83 67.635 66.235 67.635 65.595 67.635C64.965 67.635 64.33 67.635 63.69 67.635C63.06 67.635 62.465 67.635 61.905 67.635C61.355 67.635 60.885 67.635 60.495 67.635C60.105 67.635 59.845 67.635 59.715 67.635C59.495 67.635 59.26 67.64 59.01 67.65C58.76 67.66 58.53 67.675 58.32 67.695V65.925ZM65.82 66.84C65.82 67.81 65.74 68.685 65.58 69.465C65.42 70.235 65.18 70.935 64.86 71.565C64.68 71.905 64.44 72.25 64.14 72.6C63.84 72.95 63.495 73.28 63.105 73.59C62.725 73.91 62.31 74.18 61.86 74.4L60.285 73.26C60.825 73.04 61.345 72.735 61.845 72.345C62.345 71.945 62.74 71.52 63.03 71.07C63.41 70.49 63.66 69.845 63.78 69.135C63.9 68.425 63.965 67.665 63.975 66.855L65.82 66.84ZM77.58 62.82C77.54 62.61 77.495 62.415 77.445 62.235C77.395 62.055 77.34 61.88 77.28 61.71L79.185 61.395C79.205 61.545 79.225 61.73 79.245 61.95C79.275 62.16 79.305 62.355 79.335 62.535C79.365 62.665 79.41 62.92 79.47 63.3C79.54 63.67 79.625 64.125 79.725 64.665C79.835 65.205 79.95 65.79 80.07 66.42C80.2 67.05 80.325 67.685 80.445 68.325C80.575 68.965 80.695 69.57 80.805 70.14C80.915 70.71 81.01 71.21 81.09 71.64C81.18 72.07 81.245 72.38 81.285 72.57C81.335 72.79 81.39 73.03 81.45 73.29C81.52 73.54 81.59 73.78 81.66 74.01L79.725 74.355C79.685 74.085 79.65 73.825 79.62 73.575C79.6 73.325 79.565 73.09 79.515 72.87C79.485 72.69 79.43 72.395 79.35 71.985C79.28 71.575 79.19 71.09 79.08 70.53C78.97 69.97 78.85 69.375 78.72 68.745C78.6 68.105 78.48 67.47 78.36 66.84C78.24 66.21 78.125 65.62 78.015 65.07C77.915 64.52 77.825 64.05 77.745 63.66C77.665 63.26 77.61 62.98 77.58 62.82ZM73.455 64.8C73.675 64.78 73.895 64.765 74.115 64.755C74.335 64.735 74.565 64.715 74.805 64.695C75.025 64.665 75.335 64.625 75.735 64.575C76.145 64.515 76.605 64.445 77.115 64.365C77.635 64.285 78.17 64.205 78.72 64.125C79.28 64.035 79.82 63.95 80.34 63.87C80.86 63.78 81.325 63.7 81.735 63.63C82.145 63.56 82.465 63.5 82.695 63.45C82.935 63.41 83.17 63.365 83.4 63.315C83.64 63.255 83.845 63.2 84.015 63.15L84.345 64.935C84.195 64.945 83.995 64.97 83.745 65.01C83.495 65.04 83.26 65.07 83.04 65.1C82.78 65.14 82.43 65.195 81.99 65.265C81.56 65.335 81.08 65.415 80.55 65.505C80.03 65.585 79.49 65.67 78.93 65.76C78.38 65.84 77.85 65.925 77.34 66.015C76.84 66.095 76.395 66.165 76.005 66.225C75.625 66.285 75.335 66.335 75.135 66.375C74.915 66.415 74.7 66.46 74.49 66.51C74.29 66.55 74.065 66.6 73.815 66.66L73.455 64.8ZM73.44 69.18C73.64 69.17 73.88 69.15 74.16 69.12C74.45 69.09 74.705 69.06 74.925 69.03C75.195 68.99 75.555 68.935 76.005 68.865C76.465 68.795 76.98 68.715 77.55 68.625C78.12 68.535 78.705 68.44 79.305 68.34C79.915 68.24 80.505 68.145 81.075 68.055C81.645 67.955 82.165 67.865 82.635 67.785C83.115 67.695 83.5 67.625 83.79 67.575C84.08 67.525 84.35 67.47 84.6 67.41C84.85 67.35 85.07 67.295 85.26 67.245L85.62 69.015C85.43 69.025 85.2 69.055 84.93 69.105C84.66 69.145 84.385 69.19 84.105 69.24C83.775 69.29 83.365 69.355 82.875 69.435C82.395 69.515 81.865 69.605 81.285 69.705C80.715 69.795 80.13 69.89 79.53 69.99C78.93 70.08 78.35 70.175 77.79 70.275C77.24 70.365 76.745 70.445 76.305 70.515C75.865 70.585 75.52 70.645 75.27 70.695C74.96 70.755 74.68 70.81 74.43 70.86C74.19 70.9 73.99 70.945 73.83 70.995L73.44 69.18ZM98.9059 63.375C98.8559 63.455 98.7759 63.58 98.6659 63.75C98.5659 63.92 98.4859 64.08 98.4259 64.23C98.2259 64.7 97.9709 65.23 97.6609 65.82C97.3609 66.41 97.0159 67 96.6259 67.59C96.2459 68.17 95.8409 68.705 95.4109 69.195C94.8609 69.825 94.2459 70.445 93.5659 71.055C92.8959 71.655 92.1909 72.215 91.4509 72.735C90.7109 73.245 89.9509 73.68 89.1709 74.04L87.7759 72.6C88.5859 72.29 89.3709 71.9 90.1309 71.43C90.8909 70.95 91.5959 70.435 92.2459 69.885C92.8959 69.335 93.4609 68.79 93.9409 68.25C94.2809 67.87 94.6009 67.46 94.9009 67.02C95.2109 66.57 95.4859 66.12 95.7259 65.67C95.9659 65.22 96.1409 64.81 96.2509 64.44C96.1609 64.44 95.9759 64.44 95.6959 64.44C95.4259 64.44 95.1059 64.44 94.7359 64.44C94.3759 64.44 93.9959 64.44 93.5959 64.44C93.2059 64.44 92.8259 64.44 92.4559 64.44C92.0959 64.44 91.7809 64.44 91.5109 64.44C91.2409 64.44 91.0559 64.44 90.9559 64.44C90.7559 64.44 90.5409 64.45 90.3109 64.47C90.0809 64.48 89.8709 64.495 89.6809 64.515C89.4909 64.525 89.3459 64.53 89.2459 64.53V62.61C89.3659 62.63 89.5309 62.65 89.7409 62.67C89.9609 62.68 90.1809 62.69 90.4009 62.7C90.6209 62.71 90.8059 62.715 90.9559 62.715C91.0759 62.715 91.2759 62.715 91.5559 62.715C91.8359 62.715 92.1609 62.715 92.5309 62.715C92.9109 62.715 93.3009 62.715 93.7009 62.715C94.1009 62.715 94.4859 62.715 94.8559 62.715C95.2259 62.715 95.5459 62.715 95.8159 62.715C96.0859 62.715 96.2759 62.715 96.3859 62.715C96.6959 62.715 96.9759 62.7 97.2259 62.67C97.4759 62.64 97.6709 62.6 97.8109 62.55L98.9059 63.375ZM95.6059 68.07C96.0059 68.39 96.4209 68.755 96.8509 69.165C97.2909 69.575 97.7259 70 98.1559 70.44C98.5859 70.88 98.9809 71.305 99.3409 71.715C99.7109 72.115 100.021 72.465 100.271 72.765L98.7409 74.085C98.3809 73.585 97.9609 73.06 97.4809 72.51C97.0009 71.96 96.4959 71.41 95.9659 70.86C95.4359 70.31 94.9009 69.795 94.3609 69.315L95.6059 68.07ZM106.346 72.09C106.346 71.92 106.346 71.62 106.346 71.19C106.346 70.75 106.346 70.245 106.346 69.675C106.346 69.095 106.346 68.49 106.346 67.86C106.346 67.22 106.346 66.605 106.346 66.015C106.346 65.425 106.346 64.905 106.346 64.455C106.346 63.995 106.346 63.66 106.346 63.45C106.346 63.19 106.336 62.9 106.316 62.58C106.296 62.25 106.261 61.96 106.211 61.71H108.311C108.281 61.96 108.251 62.24 108.221 62.55C108.191 62.86 108.176 63.16 108.176 63.45C108.176 63.75 108.176 64.15 108.176 64.65C108.176 65.15 108.176 65.695 108.176 66.285C108.176 66.875 108.176 67.475 108.176 68.085C108.186 68.695 108.191 69.275 108.191 69.825C108.191 70.365 108.191 70.84 108.191 71.25C108.191 71.65 108.191 71.93 108.191 72.09C108.191 72.24 108.196 72.435 108.206 72.675C108.216 72.915 108.231 73.165 108.251 73.425C108.271 73.675 108.291 73.9 108.311 74.1H106.211C106.251 73.82 106.281 73.49 106.301 73.11C106.331 72.73 106.346 72.39 106.346 72.09ZM107.786 65.595C108.286 65.735 108.841 65.91 109.451 66.12C110.061 66.32 110.681 66.535 111.311 66.765C111.941 66.995 112.531 67.225 113.081 67.455C113.641 67.685 114.111 67.895 114.491 68.085L113.726 69.945C113.306 69.715 112.836 69.485 112.316 69.255C111.796 69.025 111.266 68.805 110.726 68.595C110.196 68.375 109.676 68.175 109.166 67.995C108.656 67.815 108.196 67.66 107.786 67.53V65.595ZM128.171 61.245C128.301 61.425 128.436 61.64 128.576 61.89C128.726 62.14 128.871 62.39 129.011 62.64C129.151 62.89 129.271 63.11 129.371 63.3L128.276 63.765C128.126 63.465 127.941 63.115 127.721 62.715C127.501 62.315 127.291 61.975 127.091 61.695L128.171 61.245ZM129.911 60.585C130.041 60.775 130.181 60.995 130.331 61.245C130.491 61.495 130.641 61.745 130.781 61.995C130.931 62.235 131.051 62.445 131.141 62.625L130.046 63.105C129.896 62.785 129.706 62.43 129.476 62.04C129.256 61.65 129.041 61.315 128.831 61.035L129.911 60.585ZM122.531 66.87C123.001 67.14 123.506 67.45 124.046 67.8C124.586 68.15 125.131 68.515 125.681 68.895C126.231 69.275 126.751 69.645 127.241 70.005C127.731 70.355 128.151 70.675 128.501 70.965L127.226 72.465C126.896 72.165 126.486 71.82 125.996 71.43C125.516 71.04 125.001 70.645 124.451 70.245C123.901 69.835 123.356 69.445 122.816 69.075C122.276 68.695 121.786 68.365 121.346 68.085L122.531 66.87ZM129.536 64.275C129.456 64.405 129.371 64.56 129.281 64.74C129.201 64.92 129.131 65.095 129.071 65.265C128.931 65.735 128.731 66.255 128.471 66.825C128.211 67.395 127.906 67.975 127.556 68.565C127.206 69.155 126.806 69.73 126.356 70.29C125.666 71.15 124.821 71.975 123.821 72.765C122.821 73.545 121.606 74.21 120.176 74.76L118.616 73.41C119.636 73.09 120.526 72.715 121.286 72.285C122.056 71.845 122.731 71.375 123.311 70.875C123.891 70.375 124.396 69.87 124.826 69.36C125.176 68.94 125.506 68.48 125.816 67.98C126.126 67.48 126.396 66.98 126.626 66.48C126.856 65.97 127.016 65.515 127.106 65.115H121.901L122.531 63.585H126.941C127.161 63.585 127.381 63.57 127.601 63.54C127.821 63.51 128.006 63.47 128.156 63.42L129.536 64.275ZM124.541 62.01C124.381 62.25 124.221 62.51 124.061 62.79C123.901 63.06 123.781 63.275 123.701 63.435C123.371 64.015 122.951 64.645 122.441 65.325C121.931 65.995 121.351 66.65 120.701 67.29C120.061 67.93 119.371 68.505 118.631 69.015L117.191 67.905C118.061 67.365 118.806 66.79 119.426 66.18C120.046 65.56 120.566 64.96 120.986 64.38C121.406 63.8 121.736 63.29 121.976 62.85C122.086 62.69 122.201 62.47 122.321 62.19C122.451 61.9 122.546 61.635 122.606 61.395L124.541 62.01ZM135.821 61.86C136.221 61.91 136.691 61.985 137.231 62.085C137.781 62.175 138.361 62.28 138.971 62.4C139.591 62.52 140.206 62.65 140.816 62.79C141.436 62.93 142.011 63.075 142.541 63.225C143.081 63.365 143.541 63.5 143.921 63.63L143.231 65.295C142.881 65.165 142.446 65.03 141.926 64.89C141.406 64.74 140.846 64.595 140.246 64.455C139.646 64.305 139.041 64.165 138.431 64.035C137.821 63.905 137.236 63.79 136.676 63.69C136.116 63.58 135.626 63.5 135.206 63.45L135.821 61.86ZM135.146 65.88C135.676 65.97 136.286 66.085 136.976 66.225C137.666 66.355 138.376 66.505 139.106 66.675C139.846 66.845 140.546 67.02 141.206 67.2C141.876 67.37 142.441 67.535 142.901 67.695L142.241 69.375C141.811 69.205 141.271 69.03 140.621 68.85C139.981 68.67 139.296 68.495 138.566 68.325C137.836 68.145 137.116 67.985 136.406 67.845C135.696 67.695 135.066 67.58 134.516 67.5L135.146 65.88ZM134.366 70.185C134.876 70.265 135.451 70.37 136.091 70.5C136.731 70.63 137.396 70.775 138.086 70.935C138.786 71.085 139.471 71.245 140.141 71.415C140.811 71.585 141.436 71.76 142.016 71.94C142.606 72.11 143.106 72.275 143.516 72.435L142.781 74.115C142.371 73.945 141.876 73.77 141.296 73.59C140.716 73.41 140.086 73.235 139.406 73.065C138.726 72.885 138.036 72.72 137.336 72.57C136.646 72.42 135.986 72.285 135.356 72.165C134.726 72.045 134.171 71.945 133.691 71.865L134.366 70.185ZM147.971 66.675C148.141 66.685 148.356 66.7 148.616 66.72C148.886 66.74 149.166 66.755 149.456 66.765C149.746 66.765 150.021 66.765 150.281 66.765C150.511 66.765 150.806 66.765 151.166 66.765C151.526 66.765 151.926 66.765 152.366 66.765C152.806 66.765 153.261 66.765 153.731 66.765C154.211 66.765 154.686 66.765 155.156 66.765C155.636 66.765 156.086 66.765 156.506 66.765C156.926 66.765 157.296 66.765 157.616 66.765C157.946 66.765 158.206 66.765 158.396 66.765C158.756 66.765 159.081 66.755 159.371 66.735C159.671 66.705 159.916 66.685 160.106 66.675V68.79C159.936 68.78 159.686 68.765 159.356 68.745C159.036 68.725 158.716 68.715 158.396 68.715C158.216 68.715 157.961 68.715 157.631 68.715C157.301 68.715 156.921 68.715 156.491 68.715C156.071 68.715 155.626 68.715 155.156 68.715C154.686 68.715 154.211 68.715 153.731 68.715C153.261 68.715 152.806 68.715 152.366 68.715C151.926 68.715 151.526 68.715 151.166 68.715C150.806 68.715 150.511 68.715 150.281 68.715C149.861 68.715 149.436 68.725 149.006 68.745C148.586 68.755 148.241 68.77 147.971 68.79V66.675ZM15.075 82.115C15.315 82.145 15.57 82.17 15.84 82.19C16.11 82.2 16.365 82.205 16.605 82.205C16.795 82.205 17.09 82.205 17.49 82.205C17.9 82.205 18.36 82.205 18.87 82.205C19.39 82.205 19.905 82.205 20.415 82.205C20.935 82.205 21.395 82.205 21.795 82.205C22.195 82.205 22.48 82.205 22.65 82.205C22.89 82.205 23.145 82.2 23.415 82.19C23.695 82.17 23.96 82.145 24.21 82.115V83.855C23.96 83.835 23.7 83.82 23.43 83.81C23.16 83.8 22.9 83.795 22.65 83.795C22.48 83.795 22.195 83.795 21.795 83.795C21.395 83.795 20.935 83.795 20.415 83.795C19.905 83.795 19.395 83.795 18.885 83.795C18.375 83.795 17.915 83.795 17.505 83.795C17.095 83.795 16.8 83.795 16.62 83.795C16.37 83.795 16.105 83.8 15.825 83.81C15.545 83.82 15.295 83.835 15.075 83.855V82.115ZM13.32 85.925C13.54 85.945 13.77 85.965 14.01 85.985C14.25 86.005 14.485 86.015 14.715 86.015C14.845 86.015 15.105 86.015 15.495 86.015C15.885 86.015 16.355 86.015 16.905 86.015C17.465 86.015 18.06 86.015 18.69 86.015C19.33 86.015 19.965 86.015 20.595 86.015C21.235 86.015 21.83 86.015 22.38 86.015C22.93 86.015 23.395 86.015 23.775 86.015C24.165 86.015 24.42 86.015 24.54 86.015C24.7 86.015 24.91 86.01 25.17 86C25.43 85.98 25.66 85.955 25.86 85.925V87.68C25.68 87.66 25.465 87.65 25.215 87.65C24.975 87.64 24.75 87.635 24.54 87.635C24.42 87.635 24.165 87.635 23.775 87.635C23.395 87.635 22.93 87.635 22.38 87.635C21.83 87.635 21.235 87.635 20.595 87.635C19.965 87.635 19.33 87.635 18.69 87.635C18.06 87.635 17.465 87.635 16.905 87.635C16.355 87.635 15.885 87.635 15.495 87.635C15.105 87.635 14.845 87.635 14.715 87.635C14.495 87.635 14.26 87.64 14.01 87.65C13.76 87.66 13.53 87.675 13.32 87.695V85.925ZM20.82 86.84C20.82 87.81 20.74 88.685 20.58 89.465C20.42 90.235 20.18 90.935 19.86 91.565C19.68 91.905 19.44 92.25 19.14 92.6C18.84 92.95 18.495 93.28 18.105 93.59C17.725 93.91 17.31 94.18 16.86 94.4L15.285 93.26C15.825 93.04 16.345 92.735 16.845 92.345C17.345 91.945 17.74 91.52 18.03 91.07C18.41 90.49 18.66 89.845 18.78 89.135C18.9 88.425 18.965 87.665 18.975 86.855L20.82 86.84ZM40.38 84.155C40.3 84.285 40.215 84.44 40.125 84.62C40.045 84.8 39.975 84.98 39.915 85.16C39.785 85.61 39.6 86.125 39.36 86.705C39.12 87.275 38.825 87.865 38.475 88.475C38.135 89.075 37.74 89.65 37.29 90.2C36.58 91.06 35.75 91.84 34.8 92.54C33.85 93.23 32.67 93.85 31.26 94.4L29.685 92.99C30.675 92.69 31.54 92.345 32.28 91.955C33.02 91.565 33.665 91.145 34.215 90.695C34.775 90.245 35.275 89.765 35.715 89.255C36.075 88.845 36.405 88.385 36.705 87.875C37.005 87.365 37.26 86.855 37.47 86.345C37.69 85.835 37.84 85.385 37.92 84.995H32.715L33.345 83.48C33.475 83.48 33.695 83.48 34.005 83.48C34.315 83.48 34.66 83.48 35.04 83.48C35.43 83.48 35.815 83.48 36.195 83.48C36.575 83.48 36.91 83.48 37.2 83.48C37.49 83.48 37.68 83.48 37.77 83.48C38 83.48 38.22 83.465 38.43 83.435C38.65 83.405 38.835 83.36 38.985 83.3L40.38 84.155ZM35.445 81.815C35.285 82.055 35.125 82.315 34.965 82.595C34.805 82.875 34.685 83.09 34.605 83.24C34.275 83.83 33.865 84.45 33.375 85.1C32.895 85.74 32.34 86.365 31.71 86.975C31.09 87.585 30.41 88.14 29.67 88.64L28.17 87.53C28.82 87.13 29.395 86.715 29.895 86.285C30.405 85.845 30.845 85.41 31.215 84.98C31.595 84.54 31.92 84.12 32.19 83.72C32.46 83.32 32.685 82.955 32.865 82.625C32.965 82.465 33.075 82.245 33.195 81.965C33.325 81.675 33.42 81.41 33.48 81.17L35.445 81.815ZM53.9059 83.375C53.8559 83.455 53.7759 83.58 53.6659 83.75C53.5659 83.92 53.4859 84.08 53.4259 84.23C53.2259 84.7 52.9709 85.23 52.6609 85.82C52.3609 86.41 52.0159 87 51.6259 87.59C51.2459 88.17 50.8409 88.705 50.4109 89.195C49.8609 89.825 49.2459 90.445 48.5659 91.055C47.8959 91.655 47.1909 92.215 46.4509 92.735C45.7109 93.245 44.9509 93.68 44.1709 94.04L42.7759 92.6C43.5859 92.29 44.3709 91.9 45.1309 91.43C45.8909 90.95 46.5959 90.435 47.2459 89.885C47.8959 89.335 48.4609 88.79 48.9409 88.25C49.2809 87.87 49.6009 87.46 49.9009 87.02C50.2109 86.57 50.4859 86.12 50.7259 85.67C50.9659 85.22 51.1409 84.81 51.2509 84.44C51.1609 84.44 50.9759 84.44 50.6959 84.44C50.4259 84.44 50.1059 84.44 49.7359 84.44C49.3759 84.44 48.9959 84.44 48.5959 84.44C48.2059 84.44 47.8259 84.44 47.4559 84.44C47.0959 84.44 46.7809 84.44 46.5109 84.44C46.2409 84.44 46.0559 84.44 45.9559 84.44C45.7559 84.44 45.5409 84.45 45.3109 84.47C45.0809 84.48 44.8709 84.495 44.6809 84.515C44.4909 84.525 44.3459 84.53 44.2459 84.53V82.61C44.3659 82.63 44.5309 82.65 44.7409 82.67C44.9609 82.68 45.1809 82.69 45.4009 82.7C45.6209 82.71 45.8059 82.715 45.9559 82.715C46.0759 82.715 46.2759 82.715 46.5559 82.715C46.8359 82.715 47.1609 82.715 47.5309 82.715C47.9109 82.715 48.3009 82.715 48.7009 82.715C49.1009 82.715 49.4859 82.715 49.8559 82.715C50.2259 82.715 50.5459 82.715 50.8159 82.715C51.0859 82.715 51.2759 82.715 51.3859 82.715C51.6959 82.715 51.9759 82.7 52.2259 82.67C52.4759 82.64 52.6709 82.6 52.8109 82.55L53.9059 83.375ZM50.6059 88.07C51.0059 88.39 51.4209 88.755 51.8509 89.165C52.2909 89.575 52.7259 90 53.1559 90.44C53.5859 90.88 53.9809 91.305 54.3409 91.715C54.7109 92.115 55.0209 92.465 55.2709 92.765L53.7409 94.085C53.3809 93.585 52.9609 93.06 52.4809 92.51C52.0009 91.96 51.4959 91.41 50.9659 90.86C50.4359 90.31 49.9009 89.795 49.3609 89.315L50.6059 88.07ZM61.3459 92.09C61.3459 91.92 61.3459 91.62 61.3459 91.19C61.3459 90.75 61.3459 90.245 61.3459 89.675C61.3459 89.095 61.3459 88.49 61.3459 87.86C61.3459 87.22 61.3459 86.605 61.3459 86.015C61.3459 85.425 61.3459 84.905 61.3459 84.455C61.3459 83.995 61.3459 83.66 61.3459 83.45C61.3459 83.19 61.3359 82.9 61.3159 82.58C61.2959 82.25 61.2609 81.96 61.2109 81.71H63.3109C63.2809 81.96 63.2509 82.24 63.2209 82.55C63.1909 82.86 63.1759 83.16 63.1759 83.45C63.1759 83.75 63.1759 84.15 63.1759 84.65C63.1759 85.15 63.1759 85.695 63.1759 86.285C63.1759 86.875 63.1759 87.475 63.1759 88.085C63.1859 88.695 63.1909 89.275 63.1909 89.825C63.1909 90.365 63.1909 90.84 63.1909 91.25C63.1909 91.65 63.1909 91.93 63.1909 92.09C63.1909 92.24 63.1959 92.435 63.2059 92.675C63.2159 92.915 63.2309 93.165 63.2509 93.425C63.2709 93.675 63.2909 93.9 63.3109 94.1H61.2109C61.2509 93.82 61.2809 93.49 61.3009 93.11C61.3309 92.73 61.3459 92.39 61.3459 92.09ZM62.7859 85.595C63.2859 85.735 63.8409 85.91 64.4509 86.12C65.0609 86.32 65.6809 86.535 66.3109 86.765C66.9409 86.995 67.5309 87.225 68.0809 87.455C68.6409 87.685 69.1109 87.895 69.4909 88.085L68.7259 89.945C68.3059 89.715 67.8359 89.485 67.3159 89.255C66.7959 89.025 66.2659 88.805 65.7259 88.595C65.1959 88.375 64.6759 88.175 64.1659 87.995C63.6559 87.815 63.1959 87.66 62.7859 87.53V85.595ZM83.1709 81.245C83.3009 81.425 83.4359 81.64 83.5759 81.89C83.7259 82.14 83.8709 82.39 84.0109 82.64C84.1509 82.89 84.2709 83.11 84.3709 83.3L83.2759 83.765C83.1259 83.465 82.9409 83.115 82.7209 82.715C82.5009 82.315 82.2909 81.975 82.0909 81.695L83.1709 81.245ZM84.9109 80.585C85.0409 80.775 85.1809 80.995 85.3309 81.245C85.4909 81.495 85.6409 81.745 85.7809 81.995C85.9309 82.235 86.0509 82.445 86.1409 82.625L85.0459 83.105C84.8959 82.785 84.7059 82.43 84.4759 82.04C84.2559 81.65 84.0409 81.315 83.8309 81.035L84.9109 80.585ZM77.5309 86.87C78.0009 87.14 78.5059 87.45 79.0459 87.8C79.5859 88.15 80.1309 88.515 80.6809 88.895C81.2309 89.275 81.7509 89.645 82.2409 90.005C82.7309 90.355 83.1509 90.675 83.5009 90.965L82.2259 92.465C81.8959 92.165 81.4859 91.82 80.9959 91.43C80.5159 91.04 80.0009 90.645 79.4509 90.245C78.9009 89.835 78.3559 89.445 77.8159 89.075C77.2759 88.695 76.7859 88.365 76.3459 88.085L77.5309 86.87ZM84.5359 84.275C84.4559 84.405 84.3709 84.56 84.2809 84.74C84.2009 84.92 84.1309 85.095 84.0709 85.265C83.9309 85.735 83.7309 86.255 83.4709 86.825C83.2109 87.395 82.9059 87.975 82.5559 88.565C82.2059 89.155 81.8059 89.73 81.3559 90.29C80.6659 91.15 79.8209 91.975 78.8209 92.765C77.8209 93.545 76.6059 94.21 75.1759 94.76L73.6159 93.41C74.6359 93.09 75.5259 92.715 76.2859 92.285C77.0559 91.845 77.7309 91.375 78.3109 90.875C78.8909 90.375 79.3959 89.87 79.8259 89.36C80.1759 88.94 80.5059 88.48 80.8159 87.98C81.1259 87.48 81.3959 86.98 81.6259 86.48C81.8559 85.97 82.0159 85.515 82.1059 85.115H76.9009L77.5309 83.585H81.9409C82.1609 83.585 82.3809 83.57 82.6009 83.54C82.8209 83.51 83.0059 83.47 83.1559 83.42L84.5359 84.275ZM79.5409 82.01C79.3809 82.25 79.2209 82.51 79.0609 82.79C78.9009 83.06 78.7809 83.275 78.7009 83.435C78.3709 84.015 77.9509 84.645 77.4409 85.325C76.9309 85.995 76.3509 86.65 75.7009 87.29C75.0609 87.93 74.3709 88.505 73.6309 89.015L72.1909 87.905C73.0609 87.365 73.8059 86.79 74.4259 86.18C75.0459 85.56 75.5659 84.96 75.9859 84.38C76.4059 83.8 76.7359 83.29 76.9759 82.85C77.0859 82.69 77.2009 82.47 77.3209 82.19C77.4509 81.9 77.5459 81.635 77.6059 81.395L79.5409 82.01ZM90.8209 81.86C91.2209 81.91 91.6909 81.985 92.2309 82.085C92.7809 82.175 93.3609 82.28 93.9709 82.4C94.5909 82.52 95.2059 82.65 95.8159 82.79C96.4359 82.93 97.0109 83.075 97.5409 83.225C98.0809 83.365 98.5409 83.5 98.9209 83.63L98.2309 85.295C97.8809 85.165 97.4459 85.03 96.9259 84.89C96.4059 84.74 95.8459 84.595 95.2459 84.455C94.6459 84.305 94.0409 84.165 93.4309 84.035C92.8209 83.905 92.2359 83.79 91.6759 83.69C91.1159 83.58 90.6259 83.5 90.2059 83.45L90.8209 81.86ZM90.1459 85.88C90.6759 85.97 91.2859 86.085 91.9759 86.225C92.6659 86.355 93.3759 86.505 94.1059 86.675C94.8459 86.845 95.5459 87.02 96.2059 87.2C96.8759 87.37 97.4409 87.535 97.9009 87.695L97.2409 89.375C96.8109 89.205 96.2709 89.03 95.6209 88.85C94.9809 88.67 94.2959 88.495 93.5659 88.325C92.8359 88.145 92.1159 87.985 91.4059 87.845C90.6959 87.695 90.0659 87.58 89.5159 87.5L90.1459 85.88ZM89.3659 90.185C89.8759 90.265 90.4509 90.37 91.0909 90.5C91.7309 90.63 92.3959 90.775 93.0859 90.935C93.7859 91.085 94.4709 91.245 95.1409 91.415C95.8109 91.585 96.4359 91.76 97.0159 91.94C97.6059 92.11 98.1059 92.275 98.5159 92.435L97.7809 94.115C97.3709 93.945 96.8759 93.77 96.2959 93.59C95.7159 93.41 95.0859 93.235 94.4059 93.065C93.7259 92.885 93.0359 92.72 92.3359 92.57C91.6459 92.42 90.9859 92.285 90.3559 92.165C89.7259 92.045 89.1709 91.945 88.6909 91.865L89.3659 90.185ZM102.971 86.675C103.141 86.685 103.356 86.7 103.616 86.72C103.886 86.74 104.166 86.755 104.456 86.765C104.746 86.765 105.021 86.765 105.281 86.765C105.511 86.765 105.806 86.765 106.166 86.765C106.526 86.765 106.926 86.765 107.366 86.765C107.806 86.765 108.261 86.765 108.731 86.765C109.211 86.765 109.686 86.765 110.156 86.765C110.636 86.765 111.086 86.765 111.506 86.765C111.926 86.765 112.296 86.765 112.616 86.765C112.946 86.765 113.206 86.765 113.396 86.765C113.756 86.765 114.081 86.755 114.371 86.735C114.671 86.705 114.916 86.685 115.106 86.675V88.79C114.936 88.78 114.686 88.765 114.356 88.745C114.036 88.725 113.716 88.715 113.396 88.715C113.216 88.715 112.961 88.715 112.631 88.715C112.301 88.715 111.921 88.715 111.491 88.715C111.071 88.715 110.626 88.715 110.156 88.715C109.686 88.715 109.211 88.715 108.731 88.715C108.261 88.715 107.806 88.715 107.366 88.715C106.926 88.715 106.526 88.715 106.166 88.715C105.806 88.715 105.511 88.715 105.281 88.715C104.861 88.715 104.436 88.725 104.006 88.745C103.586 88.755 103.241 88.77 102.971 88.79V86.675ZM119.621 82.115C119.861 82.145 120.116 82.17 120.386 82.19C120.656 82.2 120.911 82.205 121.151 82.205C121.341 82.205 121.636 82.205 122.036 82.205C122.446 82.205 122.906 82.205 123.416 82.205C123.936 82.205 124.451 82.205 124.961 82.205C125.481 82.205 125.941 82.205 126.341 82.205C126.741 82.205 127.026 82.205 127.196 82.205C127.436 82.205 127.691 82.2 127.961 82.19C128.241 82.17 128.506 82.145 128.756 82.115V83.855C128.506 83.835 128.246 83.82 127.976 83.81C127.706 83.8 127.446 83.795 127.196 83.795C127.026 83.795 126.741 83.795 126.341 83.795C125.941 83.795 125.481 83.795 124.961 83.795C124.451 83.795 123.941 83.795 123.431 83.795C122.921 83.795 122.461 83.795 122.051 83.795C121.641 83.795 121.346 83.795 121.166 83.795C120.916 83.795 120.651 83.8 120.371 83.81C120.091 83.82 119.841 83.835 119.621 83.855V82.115ZM117.866 85.925C118.086 85.945 118.316 85.965 118.556 85.985C118.796 86.005 119.031 86.015 119.261 86.015C119.391 86.015 119.651 86.015 120.041 86.015C120.431 86.015 120.901 86.015 121.451 86.015C122.011 86.015 122.606 86.015 123.236 86.015C123.876 86.015 124.511 86.015 125.141 86.015C125.781 86.015 126.376 86.015 126.926 86.015C127.476 86.015 127.941 86.015 128.321 86.015C128.711 86.015 128.966 86.015 129.086 86.015C129.246 86.015 129.456 86.01 129.716 86C129.976 85.98 130.206 85.955 130.406 85.925V87.68C130.226 87.66 130.011 87.65 129.761 87.65C129.521 87.64 129.296 87.635 129.086 87.635C128.966 87.635 128.711 87.635 128.321 87.635C127.941 87.635 127.476 87.635 126.926 87.635C126.376 87.635 125.781 87.635 125.141 87.635C124.511 87.635 123.876 87.635 123.236 87.635C122.606 87.635 122.011 87.635 121.451 87.635C120.901 87.635 120.431 87.635 120.041 87.635C119.651 87.635 119.391 87.635 119.261 87.635C119.041 87.635 118.806 87.64 118.556 87.65C118.306 87.66 118.076 87.675 117.866 87.695V85.925ZM125.366 86.84C125.366 87.81 125.286 88.685 125.126 89.465C124.966 90.235 124.726 90.935 124.406 91.565C124.226 91.905 123.986 92.25 123.686 92.6C123.386 92.95 123.041 93.28 122.651 93.59C122.271 93.91 121.856 94.18 121.406 94.4L119.831 93.26C120.371 93.04 120.891 92.735 121.391 92.345C121.891 91.945 122.286 91.52 122.576 91.07C122.956 90.49 123.206 89.845 123.326 89.135C123.446 88.425 123.511 87.665 123.521 86.855L125.366 86.84ZM137.126 82.82C137.086 82.61 137.041 82.415 136.991 82.235C136.941 82.055 136.886 81.88 136.826 81.71L138.731 81.395C138.751 81.545 138.771 81.73 138.791 81.95C138.821 82.16 138.851 82.355 138.881 82.535C138.911 82.665 138.956 82.92 139.016 83.3C139.086 83.67 139.171 84.125 139.271 84.665C139.381 85.205 139.496 85.79 139.616 86.42C139.746 87.05 139.871 87.685 139.991 88.325C140.121 88.965 140.241 89.57 140.351 90.14C140.461 90.71 140.556 91.21 140.636 91.64C140.726 92.07 140.791 92.38 140.831 92.57C140.881 92.79 140.936 93.03 140.996 93.29C141.066 93.54 141.136 93.78 141.206 94.01L139.271 94.355C139.231 94.085 139.196 93.825 139.166 93.575C139.146 93.325 139.111 93.09 139.061 92.87C139.031 92.69 138.976 92.395 138.896 91.985C138.826 91.575 138.736 91.09 138.626 90.53C138.516 89.97 138.396 89.375 138.266 88.745C138.146 88.105 138.026 87.47 137.906 86.84C137.786 86.21 137.671 85.62 137.561 85.07C137.461 84.52 137.371 84.05 137.291 83.66C137.211 83.26 137.156 82.98 137.126 82.82ZM133.001 84.8C133.221 84.78 133.441 84.765 133.661 84.755C133.881 84.735 134.111 84.715 134.351 84.695C134.571 84.665 134.881 84.625 135.281 84.575C135.691 84.515 136.151 84.445 136.661 84.365C137.181 84.285 137.716 84.205 138.266 84.125C138.826 84.035 139.366 83.95 139.886 83.87C140.406 83.78 140.871 83.7 141.281 83.63C141.691 83.56 142.011 83.5 142.241 83.45C142.481 83.41 142.716 83.365 142.946 83.315C143.186 83.255 143.391 83.2 143.561 83.15L143.891 84.935C143.741 84.945 143.541 84.97 143.291 85.01C143.041 85.04 142.806 85.07 142.586 85.1C142.326 85.14 141.976 85.195 141.536 85.265C141.106 85.335 140.626 85.415 140.096 85.505C139.576 85.585 139.036 85.67 138.476 85.76C137.926 85.84 137.396 85.925 136.886 86.015C136.386 86.095 135.941 86.165 135.551 86.225C135.171 86.285 134.881 86.335 134.681 86.375C134.461 86.415 134.246 86.46 134.036 86.51C133.836 86.55 133.611 86.6 133.361 86.66L133.001 84.8ZM132.986 89.18C133.186 89.17 133.426 89.15 133.706 89.12C133.996 89.09 134.251 89.06 134.471 89.03C134.741 88.99 135.101 88.935 135.551 88.865C136.011 88.795 136.526 88.715 137.096 88.625C137.666 88.535 138.251 88.44 138.851 88.34C139.461 88.24 140.051 88.145 140.621 88.055C141.191 87.955 141.711 87.865 142.181 87.785C142.661 87.695 143.046 87.625 143.336 87.575C143.626 87.525 143.896 87.47 144.146 87.41C144.396 87.35 144.616 87.295 144.806 87.245L145.166 89.015C144.976 89.025 144.746 89.055 144.476 89.105C144.206 89.145 143.931 89.19 143.651 89.24C143.321 89.29 142.911 89.355 142.421 89.435C141.941 89.515 141.411 89.605 140.831 89.705C140.261 89.795 139.676 89.89 139.076 89.99C138.476 90.08 137.896 90.175 137.336 90.275C136.786 90.365 136.291 90.445 135.851 90.515C135.411 90.585 135.066 90.645 134.816 90.695C134.506 90.755 134.226 90.81 133.976 90.86C133.736 90.9 133.536 90.945 133.376 90.995L132.986 89.18ZM158.452 83.375C158.402 83.455 158.322 83.58 158.212 83.75C158.112 83.92 158.032 84.08 157.972 84.23C157.772 84.7 157.517 85.23 157.207 85.82C156.907 86.41 156.562 87 156.172 87.59C155.792 88.17 155.387 88.705 154.957 89.195C154.407 89.825 153.792 90.445 153.112 91.055C152.442 91.655 151.737 92.215 150.997 92.735C150.257 93.245 149.497 93.68 148.717 94.04L147.322 92.6C148.132 92.29 148.917 91.9 149.677 91.43C150.437 90.95 151.142 90.435 151.792 89.885C152.442 89.335 153.007 88.79 153.487 88.25C153.827 87.87 154.147 87.46 154.447 87.02C154.757 86.57 155.032 86.12 155.272 85.67C155.512 85.22 155.687 84.81 155.797 84.44C155.707 84.44 155.522 84.44 155.242 84.44C154.972 84.44 154.652 84.44 154.282 84.44C153.922 84.44 153.542 84.44 153.142 84.44C152.752 84.44 152.372 84.44 152.002 84.44C151.642 84.44 151.327 84.44 151.057 84.44C150.787 84.44 150.602 84.44 150.502 84.44C150.302 84.44 150.087 84.45 149.857 84.47C149.627 84.48 149.417 84.495 149.227 84.515C149.037 84.525 148.892 84.53 148.792 84.53V82.61C148.912 82.63 149.077 82.65 149.287 82.67C149.507 82.68 149.727 82.69 149.947 82.7C150.167 82.71 150.352 82.715 150.502 82.715C150.622 82.715 150.822 82.715 151.102 82.715C151.382 82.715 151.707 82.715 152.077 82.715C152.457 82.715 152.847 82.715 153.247 82.715C153.647 82.715 154.032 82.715 154.402 82.715C154.772 82.715 155.092 82.715 155.362 82.715C155.632 82.715 155.822 82.715 155.932 82.715C156.242 82.715 156.522 82.7 156.772 82.67C157.022 82.64 157.217 82.6 157.357 82.55L158.452 83.375ZM155.152 88.07C155.552 88.39 155.967 88.755 156.397 89.165C156.837 89.575 157.272 90 157.702 90.44C158.132 90.88 158.527 91.305 158.887 91.715C159.257 92.115 159.567 92.465 159.817 92.765L158.287 94.085C157.927 93.585 157.507 93.06 157.027 92.51C156.547 91.96 156.042 91.41 155.512 90.86C154.982 90.31 154.447 89.795 153.907 89.315L155.152 88.07ZM16.8 112.09C16.8 111.92 16.8 111.62 16.8 111.19C16.8 110.75 16.8 110.245 16.8 109.675C16.8 109.095 16.8 108.49 16.8 107.86C16.8 107.22 16.8 106.605 16.8 106.015C16.8 105.425 16.8 104.905 16.8 104.455C16.8 103.995 16.8 103.66 16.8 103.45C16.8 103.19 16.79 102.9 16.77 102.58C16.75 102.25 16.715 101.96 16.665 101.71H18.765C18.735 101.96 18.705 102.24 18.675 102.55C18.645 102.86 18.63 103.16 18.63 103.45C18.63 103.75 18.63 104.15 18.63 104.65C18.63 105.15 18.63 105.695 18.63 106.285C18.63 106.875 18.63 107.475 18.63 108.085C18.64 108.695 18.645 109.275 18.645 109.825C18.645 110.365 18.645 110.84 18.645 111.25C18.645 111.65 18.645 111.93 18.645 112.09C18.645 112.24 18.65 112.435 18.66 112.675C18.67 112.915 18.685 113.165 18.705 113.425C18.725 113.675 18.745 113.9 18.765 114.1H16.665C16.705 113.82 16.735 113.49 16.755 113.11C16.785 112.73 16.8 112.39 16.8 112.09ZM18.24 105.595C18.74 105.735 19.295 105.91 19.905 106.12C20.515 106.32 21.135 106.535 21.765 106.765C22.395 106.995 22.985 107.225 23.535 107.455C24.095 107.685 24.565 107.895 24.945 108.085L24.18 109.945C23.76 109.715 23.29 109.485 22.77 109.255C22.25 109.025 21.72 108.805 21.18 108.595C20.65 108.375 20.13 108.175 19.62 107.995C19.11 107.815 18.65 107.66 18.24 107.53V105.595ZM38.625 101.245C38.755 101.425 38.89 101.64 39.03 101.89C39.18 102.14 39.325 102.39 39.465 102.64C39.605 102.89 39.725 103.11 39.825 103.3L38.73 103.765C38.58 103.465 38.395 103.115 38.175 102.715C37.955 102.315 37.745 101.975 37.545 101.695L38.625 101.245ZM40.365 100.585C40.495 100.775 40.635 100.995 40.785 101.245C40.945 101.495 41.095 101.745 41.235 101.995C41.385 102.235 41.505 102.445 41.595 102.625L40.5 103.105C40.35 102.785 40.16 102.43 39.93 102.04C39.71 101.65 39.495 101.315 39.285 101.035L40.365 100.585ZM32.985 106.87C33.455 107.14 33.96 107.45 34.5 107.8C35.04 108.15 35.585 108.515 36.135 108.895C36.685 109.275 37.205 109.645 37.695 110.005C38.185 110.355 38.605 110.675 38.955 110.965L37.68 112.465C37.35 112.165 36.94 111.82 36.45 111.43C35.97 111.04 35.455 110.645 34.905 110.245C34.355 109.835 33.81 109.445 33.27 109.075C32.73 108.695 32.24 108.365 31.8 108.085L32.985 106.87ZM39.99 104.275C39.91 104.405 39.825 104.56 39.735 104.74C39.655 104.92 39.585 105.095 39.525 105.265C39.385 105.735 39.185 106.255 38.925 106.825C38.665 107.395 38.36 107.975 38.01 108.565C37.66 109.155 37.26 109.73 36.81 110.29C36.12 111.15 35.275 111.975 34.275 112.765C33.275 113.545 32.06 114.21 30.63 114.76L29.07 113.41C30.09 113.09 30.98 112.715 31.74 112.285C32.51 111.845 33.185 111.375 33.765 110.875C34.345 110.375 34.85 109.87 35.28 109.36C35.63 108.94 35.96 108.48 36.27 107.98C36.58 107.48 36.85 106.98 37.08 106.48C37.31 105.97 37.47 105.515 37.56 105.115H32.355L32.985 103.585H37.395C37.615 103.585 37.835 103.57 38.055 103.54C38.275 103.51 38.46 103.47 38.61 103.42L39.99 104.275ZM34.995 102.01C34.835 102.25 34.675 102.51 34.515 102.79C34.355 103.06 34.235 103.275 34.155 103.435C33.825 104.015 33.405 104.645 32.895 105.325C32.385 105.995 31.805 106.65 31.155 107.29C30.515 107.93 29.825 108.505 29.085 109.015L27.645 107.905C28.515 107.365 29.26 106.79 29.88 106.18C30.5 105.56 31.02 104.96 31.44 104.38C31.86 103.8 32.19 103.29 32.43 102.85C32.54 102.69 32.655 102.47 32.775 102.19C32.905 101.9 33 101.635 33.06 101.395L34.995 102.01ZM46.275 101.86C46.675 101.91 47.145 101.985 47.685 102.085C48.235 102.175 48.815 102.28 49.425 102.4C50.045 102.52 50.66 102.65 51.27 102.79C51.89 102.93 52.465 103.075 52.995 103.225C53.535 103.365 53.995 103.5 54.375 103.63L53.685 105.295C53.335 105.165 52.9 105.03 52.38 104.89C51.86 104.74 51.3 104.595 50.7 104.455C50.1 104.305 49.495 104.165 48.885 104.035C48.275 103.905 47.69 103.79 47.13 103.69C46.57 103.58 46.08 103.5 45.66 103.45L46.275 101.86ZM45.6 105.88C46.13 105.97 46.74 106.085 47.43 106.225C48.12 106.355 48.83 106.505 49.56 106.675C50.3 106.845 51 107.02 51.66 107.2C52.33 107.37 52.895 107.535 53.355 107.695L52.695 109.375C52.265 109.205 51.725 109.03 51.075 108.85C50.435 108.67 49.75 108.495 49.02 108.325C48.29 108.145 47.57 107.985 46.86 107.845C46.15 107.695 45.52 107.58 44.97 107.5L45.6 105.88ZM44.82 110.185C45.33 110.265 45.905 110.37 46.545 110.5C47.185 110.63 47.85 110.775 48.54 110.935C49.24 111.085 49.925 111.245 50.595 111.415C51.265 111.585 51.89 111.76 52.47 111.94C53.06 112.11 53.56 112.275 53.97 112.435L53.235 114.115C52.825 113.945 52.33 113.77 51.75 113.59C51.17 113.41 50.54 113.235 49.86 113.065C49.18 112.885 48.49 112.72 47.79 112.57C47.1 112.42 46.44 112.285 45.81 112.165C45.18 112.045 44.625 111.945 44.145 111.865L44.82 110.185ZM58.425 106.675C58.595 106.685 58.81 106.7 59.07 106.72C59.34 106.74 59.62 106.755 59.91 106.765C60.2 106.765 60.475 106.765 60.735 106.765C60.965 106.765 61.26 106.765 61.62 106.765C61.98 106.765 62.38 106.765 62.82 106.765C63.26 106.765 63.715 106.765 64.185 106.765C64.665 106.765 65.14 106.765 65.61 106.765C66.09 106.765 66.54 106.765 66.96 106.765C67.38 106.765 67.75 106.765 68.07 106.765C68.4 106.765 68.66 106.765 68.85 106.765C69.21 106.765 69.535 106.755 69.825 106.735C70.125 106.705 70.37 106.685 70.56 106.675V108.79C70.39 108.78 70.14 108.765 69.81 108.745C69.49 108.725 69.17 108.715 68.85 108.715C68.67 108.715 68.415 108.715 68.085 108.715C67.755 108.715 67.375 108.715 66.945 108.715C66.525 108.715 66.08 108.715 65.61 108.715C65.14 108.715 64.665 108.715 64.185 108.715C63.715 108.715 63.26 108.715 62.82 108.715C62.38 108.715 61.98 108.715 61.62 108.715C61.26 108.715 60.965 108.715 60.735 108.715C60.315 108.715 59.89 108.725 59.46 108.745C59.04 108.755 58.695 108.77 58.425 108.79V106.675ZM75.075 102.115C75.315 102.145 75.57 102.17 75.84 102.19C76.11 102.2 76.365 102.205 76.605 102.205C76.795 102.205 77.09 102.205 77.49 102.205C77.9 102.205 78.36 102.205 78.87 102.205C79.39 102.205 79.905 102.205 80.415 102.205C80.935 102.205 81.395 102.205 81.795 102.205C82.195 102.205 82.48 102.205 82.65 102.205C82.89 102.205 83.145 102.2 83.415 102.19C83.695 102.17 83.96 102.145 84.21 102.115V103.855C83.96 103.835 83.7 103.82 83.43 103.81C83.16 103.8 82.9 103.795 82.65 103.795C82.48 103.795 82.195 103.795 81.795 103.795C81.395 103.795 80.935 103.795 80.415 103.795C79.905 103.795 79.395 103.795 78.885 103.795C78.375 103.795 77.915 103.795 77.505 103.795C77.095 103.795 76.8 103.795 76.62 103.795C76.37 103.795 76.105 103.8 75.825 103.81C75.545 103.82 75.295 103.835 75.075 103.855V102.115ZM73.32 105.925C73.54 105.945 73.77 105.965 74.01 105.985C74.25 106.005 74.485 106.015 74.715 106.015C74.845 106.015 75.105 106.015 75.495 106.015C75.885 106.015 76.355 106.015 76.905 106.015C77.465 106.015 78.06 106.015 78.69 106.015C79.33 106.015 79.965 106.015 80.595 106.015C81.235 106.015 81.83 106.015 82.38 106.015C82.93 106.015 83.395 106.015 83.775 106.015C84.165 106.015 84.42 106.015 84.54 106.015C84.7 106.015 84.91 106.01 85.17 106C85.43 105.98 85.66 105.955 85.86 105.925V107.68C85.68 107.66 85.465 107.65 85.215 107.65C84.975 107.64 84.75 107.635 84.54 107.635C84.42 107.635 84.165 107.635 83.775 107.635C83.395 107.635 82.93 107.635 82.38 107.635C81.83 107.635 81.235 107.635 80.595 107.635C79.965 107.635 79.33 107.635 78.69 107.635C78.06 107.635 77.465 107.635 76.905 107.635C76.355 107.635 75.885 107.635 75.495 107.635C75.105 107.635 74.845 107.635 74.715 107.635C74.495 107.635 74.26 107.64 74.01 107.65C73.76 107.66 73.53 107.675 73.32 107.695V105.925ZM80.82 106.84C80.82 107.81 80.74 108.685 80.58 109.465C80.42 110.235 80.18 110.935 79.86 111.565C79.68 111.905 79.44 112.25 79.14 112.6C78.84 112.95 78.495 113.28 78.105 113.59C77.725 113.91 77.31 114.18 76.86 114.4L75.285 113.26C75.825 113.04 76.345 112.735 76.845 112.345C77.345 111.945 77.74 111.52 78.03 111.07C78.41 110.49 78.66 109.845 78.78 109.135C78.9 108.425 78.965 107.665 78.975 106.855L80.82 106.84ZM100.38 104.155C100.3 104.285 100.215 104.44 100.125 104.62C100.045 104.8 99.975 104.98 99.915 105.16C99.785 105.61 99.6 106.125 99.36 106.705C99.12 107.275 98.825 107.865 98.475 108.475C98.135 109.075 97.74 109.65 97.29 110.2C96.58 111.06 95.75 111.84 94.8 112.54C93.85 113.23 92.67 113.85 91.26 114.4L89.685 112.99C90.675 112.69 91.54 112.345 92.28 111.955C93.02 111.565 93.665 111.145 94.215 110.695C94.775 110.245 95.275 109.765 95.715 109.255C96.075 108.845 96.405 108.385 96.705 107.875C97.005 107.365 97.26 106.855 97.47 106.345C97.69 105.835 97.84 105.385 97.92 104.995H92.715L93.345 103.48C93.475 103.48 93.695 103.48 94.005 103.48C94.315 103.48 94.66 103.48 95.04 103.48C95.43 103.48 95.815 103.48 96.195 103.48C96.575 103.48 96.91 103.48 97.2 103.48C97.49 103.48 97.68 103.48 97.77 103.48C98 103.48 98.22 103.465 98.43 103.435C98.65 103.405 98.835 103.36 98.985 103.3L100.38 104.155ZM95.445 101.815C95.285 102.055 95.125 102.315 94.965 102.595C94.805 102.875 94.685 103.09 94.605 103.24C94.275 103.83 93.865 104.45 93.375 105.1C92.895 105.74 92.34 106.365 91.71 106.975C91.09 107.585 90.41 108.14 89.67 108.64L88.17 107.53C88.82 107.13 89.395 106.715 89.895 106.285C90.405 105.845 90.845 105.41 91.215 104.98C91.595 104.54 91.92 104.12 92.19 103.72C92.46 103.32 92.685 102.955 92.865 102.625C92.965 102.465 93.075 102.245 93.195 101.965C93.325 101.675 93.42 101.41 93.48 101.17L95.445 101.815ZM113.906 103.375C113.856 103.455 113.776 103.58 113.666 103.75C113.566 103.92 113.486 104.08 113.426 104.23C113.226 104.7 112.971 105.23 112.661 105.82C112.361 106.41 112.016 107 111.626 107.59C111.246 108.17 110.841 108.705 110.411 109.195C109.861 109.825 109.246 110.445 108.566 111.055C107.896 111.655 107.191 112.215 106.451 112.735C105.711 113.245 104.951 113.68 104.171 114.04L102.776 112.6C103.586 112.29 104.371 111.9 105.131 111.43C105.891 110.95 106.596 110.435 107.246 109.885C107.896 109.335 108.461 108.79 108.941 108.25C109.281 107.87 109.601 107.46 109.901 107.02C110.211 106.57 110.486 106.12 110.726 105.67C110.966 105.22 111.141 104.81 111.251 104.44C111.161 104.44 110.976 104.44 110.696 104.44C110.426 104.44 110.106 104.44 109.736 104.44C109.376 104.44 108.996 104.44 108.596 104.44C108.206 104.44 107.826 104.44 107.456 104.44C107.096 104.44 106.781 104.44 106.511 104.44C106.241 104.44 106.056 104.44 105.956 104.44C105.756 104.44 105.541 104.45 105.311 104.47C105.081 104.48 104.871 104.495 104.681 104.515C104.491 104.525 104.346 104.53 104.246 104.53V102.61C104.366 102.63 104.531 102.65 104.741 102.67C104.961 102.68 105.181 102.69 105.401 102.7C105.621 102.71 105.806 102.715 105.956 102.715C106.076 102.715 106.276 102.715 106.556 102.715C106.836 102.715 107.161 102.715 107.531 102.715C107.911 102.715 108.301 102.715 108.701 102.715C109.101 102.715 109.486 102.715 109.856 102.715C110.226 102.715 110.546 102.715 110.816 102.715C111.086 102.715 111.276 102.715 111.386 102.715C111.696 102.715 111.976 102.7 112.226 102.67C112.476 102.64 112.671 102.6 112.811 102.55L113.906 103.375ZM110.606 108.07C111.006 108.39 111.421 108.755 111.851 109.165C112.291 109.575 112.726 110 113.156 110.44C113.586 110.88 113.981 111.305 114.341 111.715C114.711 112.115 115.021 112.465 115.271 112.765L113.741 114.085C113.381 113.585 112.961 113.06 112.481 112.51C112.001 111.96 111.496 111.41 110.966 110.86C110.436 110.31 109.901 109.795 109.361 109.315L110.606 108.07ZM121.346 112.09C121.346 111.92 121.346 111.62 121.346 111.19C121.346 110.75 121.346 110.245 121.346 109.675C121.346 109.095 121.346 108.49 121.346 107.86C121.346 107.22 121.346 106.605 121.346 106.015C121.346 105.425 121.346 104.905 121.346 104.455C121.346 103.995 121.346 103.66 121.346 103.45C121.346 103.19 121.336 102.9 121.316 102.58C121.296 102.25 121.261 101.96 121.211 101.71H123.311C123.281 101.96 123.251 102.24 123.221 102.55C123.191 102.86 123.176 103.16 123.176 103.45C123.176 103.75 123.176 104.15 123.176 104.65C123.176 105.15 123.176 105.695 123.176 106.285C123.176 106.875 123.176 107.475 123.176 108.085C123.186 108.695 123.191 109.275 123.191 109.825C123.191 110.365 123.191 110.84 123.191 111.25C123.191 111.65 123.191 111.93 123.191 112.09C123.191 112.24 123.196 112.435 123.206 112.675C123.216 112.915 123.231 113.165 123.251 113.425C123.271 113.675 123.291 113.9 123.311 114.1H121.211C121.251 113.82 121.281 113.49 121.301 113.11C121.331 112.73 121.346 112.39 121.346 112.09ZM122.786 105.595C123.286 105.735 123.841 105.91 124.451 106.12C125.061 106.32 125.681 106.535 126.311 106.765C126.941 106.995 127.531 107.225 128.081 107.455C128.641 107.685 129.111 107.895 129.491 108.085L128.726 109.945C128.306 109.715 127.836 109.485 127.316 109.255C126.796 109.025 126.266 108.805 125.726 108.595C125.196 108.375 124.676 108.175 124.166 107.995C123.656 107.815 123.196 107.66 122.786 107.53V105.595ZM143.171 101.245C143.301 101.425 143.436 101.64 143.576 101.89C143.726 102.14 143.871 102.39 144.011 102.64C144.151 102.89 144.271 103.11 144.371 103.3L143.276 103.765C143.126 103.465 142.941 103.115 142.721 102.715C142.501 102.315 142.291 101.975 142.091 101.695L143.171 101.245ZM144.911 100.585C145.041 100.775 145.181 100.995 145.331 101.245C145.491 101.495 145.641 101.745 145.781 101.995C145.931 102.235 146.051 102.445 146.141 102.625L145.046 103.105C144.896 102.785 144.706 102.43 144.476 102.04C144.256 101.65 144.041 101.315 143.831 101.035L144.911 100.585ZM137.531 106.87C138.001 107.14 138.506 107.45 139.046 107.8C139.586 108.15 140.131 108.515 140.681 108.895C141.231 109.275 141.751 109.645 142.241 110.005C142.731 110.355 143.151 110.675 143.501 110.965L142.226 112.465C141.896 112.165 141.486 111.82 140.996 111.43C140.516 111.04 140.001 110.645 139.451 110.245C138.901 109.835 138.356 109.445 137.816 109.075C137.276 108.695 136.786 108.365 136.346 108.085L137.531 106.87ZM144.536 104.275C144.456 104.405 144.371 104.56 144.281 104.74C144.201 104.92 144.131 105.095 144.071 105.265C143.931 105.735 143.731 106.255 143.471 106.825C143.211 107.395 142.906 107.975 142.556 108.565C142.206 109.155 141.806 109.73 141.356 110.29C140.666 111.15 139.821 111.975 138.821 112.765C137.821 113.545 136.606 114.21 135.176 114.76L133.616 113.41C134.636 113.09 135.526 112.715 136.286 112.285C137.056 111.845 137.731 111.375 138.311 110.875C138.891 110.375 139.396 109.87 139.826 109.36C140.176 108.94 140.506 108.48 140.816 107.98C141.126 107.48 141.396 106.98 141.626 106.48C141.856 105.97 142.016 105.515 142.106 105.115H136.901L137.531 103.585H141.941C142.161 103.585 142.381 103.57 142.601 103.54C142.821 103.51 143.006 103.47 143.156 103.42L144.536 104.275ZM139.541 102.01C139.381 102.25 139.221 102.51 139.061 102.79C138.901 103.06 138.781 103.275 138.701 103.435C138.371 104.015 137.951 104.645 137.441 105.325C136.931 105.995 136.351 106.65 135.701 107.29C135.061 107.93 134.371 108.505 133.631 109.015L132.191 107.905C133.061 107.365 133.806 106.79 134.426 106.18C135.046 105.56 135.566 104.96 135.986 104.38C136.406 103.8 136.736 103.29 136.976 102.85C137.086 102.69 137.201 102.47 137.321 102.19C137.451 101.9 137.546 101.635 137.606 101.395L139.541 102.01ZM149.051 106.645C149.371 106.645 149.641 106.76 149.861 106.99C150.091 107.21 150.206 107.48 150.206 107.8C150.206 108.12 150.091 108.395 149.861 108.625C149.641 108.845 149.371 108.955 149.051 108.955C148.731 108.955 148.456 108.845 148.226 108.625C148.006 108.395 147.896 108.12 147.896 107.8C147.896 107.48 148.006 107.21 148.226 106.99C148.456 106.76 148.731 106.645 149.051 106.645ZM154.046 106.645C154.366 106.645 154.636 106.76 154.856 106.99C155.086 107.21 155.201 107.48 155.201 107.8C155.201 108.12 155.086 108.395 154.856 108.625C154.636 108.845 154.366 108.955 154.046 108.955C153.726 108.955 153.451 108.845 153.221 108.625C153.001 108.395 152.891 108.12 152.891 107.8C152.891 107.48 153.001 107.21 153.221 106.99C153.451 106.76 153.726 106.645 154.046 106.645ZM159.041 106.645C159.361 106.645 159.631 106.76 159.851 106.99C160.081 107.21 160.196 107.48 160.196 107.8C160.196 108.12 160.081 108.395 159.851 108.625C159.631 108.845 159.361 108.955 159.041 108.955C158.721 108.955 158.446 108.845 158.216 108.625C157.996 108.395 157.886 108.12 157.886 107.8C157.886 107.48 157.996 107.21 158.216 106.99C158.446 106.76 158.721 106.645 159.041 106.645Z" fill="#33362C" style="fill:#33362C;fill:color(display-p3 0.2015 0.2112 0.1724);fill-opacity:1;"/>
<rect x="34" y="133" width="2" height="2" transform="rotate(90 34 133)" fill="#33362C" style="fill:#33362C;fill:color(display-p3 0.2015 0.2112 0.1724);fill-opacity:1;"/>
<rect x="28" y="133" width="2" height="2" transform="rotate(90 28 133)" fill="#33362C" style="fill:#33362C;fill:color(display-p3 0.2015 0.2112 0.1724);fill-opacity:1;"/>
<rect x="22" y="133" width="2" height="2" transform="rotate(90 22 133)" fill="#33362C" style="fill:#33362C;fill:color(display-p3 0.2015 0.2112 0.1724);fill-opacity:1;"/>
<rect x="128.5" y="122" width="38" height="24" rx="12" stroke="#33362C" style="stroke:#33362C;stroke:color(display-p3 0.2015 0.2112 0.1724);stroke-opacity:1;"/>
<path d="M147.5 139H153.125M150.235 128.764C150.484 128.515 150.821 128.375 151.173 128.375C151.525 128.375 151.862 128.515 152.111 128.764C152.36 129.013 152.5 129.35 152.5 129.702C152.5 130.054 152.36 130.391 152.111 130.64L144.605 138.147C144.456 138.296 144.273 138.404 144.071 138.463L142.276 138.987C142.222 139.003 142.165 139.003 142.111 138.99C142.056 138.976 142.007 138.947 141.967 138.908C141.928 138.868 141.899 138.819 141.885 138.764C141.871 138.71 141.872 138.653 141.888 138.599L142.412 136.804C142.471 136.603 142.58 136.419 142.728 136.271L150.235 128.764Z" stroke="#33362C" style="stroke:#33362C;stroke:color(display-p3 0.2015 0.2112 0.1724);stroke-opacity:1;" stroke-linecap="round" stroke-linejoin="round"/>
</svg>
