<svg width="171" height="26" viewBox="0 0 171 26" fill="none" xmlns="http://www.w3.org/2000/svg">
<g clip-path="url(#clip0_461_2319)">
<path d="M52.1135 4.7834C52.1673 4.83765 52.1942 4.90395 52.1942 4.97929V7.24866C52.1942 7.32701 52.1673 7.3903 52.1135 7.44455C52.0597 7.4988 51.9939 7.52592 51.9191 7.52592H47.8081C47.7303 7.52592 47.6944 7.5651 47.6944 7.64045V20.6237C47.6944 20.7021 47.6675 20.7654 47.6137 20.8196C47.5599 20.8739 47.4941 20.901 47.4194 20.901H44.7315C44.6537 20.901 44.5909 20.8739 44.5371 20.8196C44.4833 20.7654 44.4564 20.6991 44.4564 20.6237V7.64045C44.4564 7.56209 44.4175 7.52592 44.3428 7.52592H40.3483C40.2706 7.52592 40.2078 7.4988 40.154 7.44455C40.1002 7.3903 40.0732 7.324 40.0732 7.24866V4.97929C40.0732 4.90093 40.1002 4.83765 40.154 4.7834C40.2078 4.72915 40.2736 4.70203 40.3483 4.70203H51.9221C51.9999 4.70203 52.0626 4.72915 52.1165 4.7834H52.1135Z" fill="black" style="fill:black;fill-opacity:1;"/>
<path d="M60.2371 9.3432C61.0174 9.68979 61.6273 10.166 62.0639 10.7657C62.5004 11.3685 62.7187 12.0375 62.7187 12.7789V20.6237C62.7187 20.7021 62.6917 20.7654 62.6379 20.8196C62.5841 20.8739 62.5183 20.901 62.4436 20.901H59.7557C59.6779 20.901 59.6152 20.8739 59.5613 20.8196C59.5075 20.7654 59.4806 20.6991 59.4806 20.6237V19.8612C59.4806 19.816 59.4657 19.7829 59.4358 19.7678C59.4059 19.7527 59.373 19.7678 59.3431 19.813C58.7003 20.6629 57.6658 21.0848 56.2426 21.0848C55.0496 21.0848 54.0839 20.7925 53.3484 20.2048C52.6129 19.6171 52.2451 18.7552 52.2451 17.613C52.2451 16.4708 52.6577 15.5033 53.4859 14.8463C54.3111 14.1923 55.4921 13.8638 57.0229 13.8638H59.364C59.4417 13.8638 59.4776 13.8247 59.4776 13.7493V13.24C59.4776 12.7307 59.3251 12.3329 59.0172 12.0465C58.7122 11.7602 58.2518 11.6186 57.6389 11.6186C57.1635 11.6186 56.7688 11.703 56.4549 11.8718C56.1409 12.0405 55.9376 12.2816 55.8449 12.589C55.8001 12.7578 55.6984 12.8362 55.5459 12.8211L52.7683 12.4504C52.586 12.4203 52.4993 12.3509 52.5172 12.2424C52.577 11.5945 52.8341 11.0068 53.2856 10.4824C53.7371 9.95801 54.335 9.54814 55.0765 9.25581C55.818 8.96347 56.6492 8.8158 57.5671 8.8158C58.5627 8.8158 59.4507 8.99059 60.2311 9.33718L60.2371 9.3432ZM58.79 18.1253C59.2504 17.7697 59.4776 17.3146 59.4776 16.7601V15.9283C59.4776 15.8499 59.4388 15.8138 59.364 15.8138H57.7106C57.0229 15.8138 56.4818 15.9464 56.0931 16.2086C55.7014 16.4708 55.5071 16.8414 55.5071 17.3206C55.5071 17.7365 55.6536 18.065 55.9436 18.3031C56.2336 18.5412 56.6253 18.6618 57.1156 18.6618C57.7734 18.6618 58.3325 18.4839 58.7929 18.1283L58.79 18.1253Z" fill="black" style="fill:black;fill-opacity:1;"/>
<path d="M73.4314 9.3432C74.2118 9.68979 74.8217 10.166 75.2582 10.7657C75.6947 11.3685 75.913 12.0375 75.913 12.7789V20.6237C75.913 20.7021 75.8861 20.7654 75.8323 20.8196C75.7784 20.8739 75.7127 20.901 75.6379 20.901H72.95C72.8723 20.901 72.8095 20.8739 72.7557 20.8196C72.7019 20.7654 72.675 20.6991 72.675 20.6237V19.8612C72.675 19.816 72.66 19.7829 72.6301 19.7678C72.6002 19.7527 72.5673 19.7678 72.5374 19.813C71.8946 20.6629 70.8601 21.0848 69.4369 21.0848C68.244 21.0848 67.2782 20.7925 66.5427 20.2048C65.8072 19.6171 65.4395 18.7552 65.4395 17.613C65.4395 16.4708 65.8521 15.5033 66.6803 14.8463C67.5055 14.1923 68.6865 13.8638 70.2173 13.8638H72.5583C72.6361 13.8638 72.672 13.8247 72.672 13.7493V13.24C72.672 12.7307 72.5195 12.3329 72.2115 12.0465C71.9066 11.7602 71.4461 11.6186 70.8332 11.6186C70.3578 11.6186 69.9631 11.703 69.6492 11.8718C69.3353 12.0405 69.132 12.2816 69.0393 12.589C68.9944 12.7578 68.8928 12.8362 68.7403 12.8211L65.9627 12.4504C65.7803 12.4203 65.6936 12.3509 65.7115 12.2424C65.7713 11.5945 66.0285 11.0068 66.4799 10.4824C66.9314 9.95801 67.5294 9.54814 68.2709 9.25581C69.0124 8.96347 69.8435 8.8158 70.7614 8.8158C71.7571 8.8158 72.6451 8.99059 73.4254 9.33718L73.4314 9.3432ZM71.9843 18.1253C72.4447 17.7697 72.672 17.3146 72.672 16.7601V15.9283C72.672 15.8499 72.6331 15.8138 72.5583 15.8138H70.9049C70.2173 15.8138 69.6761 15.9464 69.2874 16.2086C68.8958 16.4708 68.7014 16.8414 68.7014 17.3206C68.7014 17.7365 68.8479 18.065 69.1379 18.3031C69.428 18.5412 69.8196 18.6618 70.31 18.6618C70.9677 18.6618 71.5268 18.4839 71.9873 18.1283L71.9843 18.1253Z" fill="black" style="fill:black;fill-opacity:1;"/>
<path d="M79.3273 20.8226C79.2735 20.7684 79.2466 20.7021 79.2466 20.6267V4.97929C79.2466 4.90093 79.2735 4.83765 79.3273 4.7834C79.3811 4.72915 79.4469 4.70203 79.5217 4.70203H82.2096C82.2843 4.70203 82.3501 4.72915 82.4039 4.7834C82.4577 4.83765 82.4846 4.90395 82.4846 4.97929V12.7789C82.4846 12.8241 82.4996 12.8512 82.5295 12.8603C82.5594 12.8693 82.5893 12.8573 82.6222 12.8241L85.7436 9.16842C85.8512 9.05993 85.9648 9.00568 86.0874 9.00568H89.1401C89.2926 9.00568 89.3703 9.05993 89.3703 9.16842C89.3703 9.21363 89.3464 9.27692 89.3015 9.35226L86.3864 13.0773C86.3565 13.1406 86.3475 13.1918 86.3625 13.24L89.7829 20.5755C89.8128 20.6388 89.8278 20.684 89.8278 20.7141C89.8278 20.8377 89.744 20.898 89.5766 20.898H86.7512C86.5987 20.898 86.4911 20.8287 86.4283 20.69L84.156 15.2743C84.141 15.2442 84.1141 15.2231 84.0752 15.217C84.0364 15.208 84.0095 15.2201 83.9945 15.2532L82.5235 17.1037C82.4936 17.167 82.4786 17.2122 82.4786 17.2423V20.6207C82.4786 20.6991 82.4517 20.7624 82.3979 20.8166C82.3441 20.8709 82.2783 20.898 82.2036 20.898H79.5157C79.4379 20.898 79.3751 20.8709 79.3213 20.8166L79.3273 20.8226Z" fill="black" style="fill:black;fill-opacity:1;"/>
<path d="M94.0434 20.6237C93.278 20.3314 92.686 19.9215 92.2644 19.3971C91.8428 18.8727 91.6335 18.279 91.6335 17.616V17.3839C91.6335 17.3055 91.6605 17.2423 91.7143 17.188C91.7681 17.1338 91.8339 17.1066 91.9086 17.1066H94.456C94.5337 17.1066 94.5965 17.1338 94.6503 17.188C94.7041 17.2423 94.7311 17.3086 94.7311 17.3839V17.408C94.7311 17.7486 94.9194 18.0379 95.2932 18.276C95.6669 18.5141 96.1393 18.6346 96.7044 18.6346C97.2246 18.6346 97.6462 18.5291 97.9661 18.3212C98.289 18.1132 98.4475 17.854 98.4475 17.5466C98.4475 17.2694 98.3099 17.0614 98.0349 16.9228C97.7598 16.7842 97.3083 16.6365 96.6804 16.4828C95.9599 16.2959 95.3948 16.1211 94.9822 15.9493C94.0015 15.6088 93.2212 15.1929 92.6411 14.6986C92.0581 14.2044 91.7681 13.4961 91.7681 12.5679C91.7681 11.4257 92.2076 10.5185 93.0896 9.84949C93.9686 9.17742 95.1377 8.8429 96.5908 8.8429C97.5714 8.8429 98.4265 9.00263 99.1621 9.31606C99.8976 9.6325 100.466 10.0755 100.872 10.6481C101.279 11.2177 101.482 11.8657 101.482 12.592C101.482 12.6704 101.455 12.7337 101.401 12.7879C101.348 12.8422 101.282 12.8693 101.207 12.8693H98.7494C98.6717 12.8693 98.6089 12.8422 98.5551 12.7879C98.5013 12.7337 98.4744 12.6674 98.4744 12.592C98.4744 12.2515 98.301 11.9682 97.9571 11.7361C97.6133 11.504 97.1558 11.3895 96.5908 11.3895C96.0855 11.3895 95.6729 11.483 95.35 11.6668C95.0271 11.8506 94.8686 12.1068 94.8686 12.4293C94.8686 12.7517 95.0241 12.9687 95.338 13.1224C95.6519 13.2761 96.1752 13.4389 96.9107 13.6077C97.0781 13.6529 97.2695 13.7041 97.4847 13.7583C97.7 13.8126 97.9272 13.8789 98.1724 13.9542C99.2577 14.2797 100.116 14.6956 100.744 15.2049C101.372 15.7143 101.686 16.4557 101.686 17.4261C101.686 18.5683 101.237 19.4604 100.343 20.0993C99.4461 20.7382 98.2412 21.0607 96.7253 21.0607C95.6998 21.0607 94.8028 20.913 94.0374 20.6207L94.0434 20.6237Z" fill="black" style="fill:black;fill-opacity:1;"/>
<path d="M12.8385 9.69865V6.35337C12.8385 5.18102 12.71 4.93088 12.5425 4.75608C12.4469 4.65663 11.8608 4.34319 9.35831 5.17499C7.34613 5.84103 4.93928 6.99832 2.38891 8.22492L1.96435 8.42986L0 4.27689L0.421573 4.07497C6.41329 1.19381 11.5888 -1.29556 14.9524 0.844214C15.661 1.29327 16.2141 1.89903 16.6177 2.65549C16.7702 2.94179 17.1081 3.06536 17.4041 2.93878C17.4041 2.93878 17.4071 2.93878 17.4101 2.93878C21.9786 1.02504 25.9252 -0.626502 28.8493 1.34149C30.6582 2.55905 31.5372 4.85553 31.5372 8.36054H26.9747C26.9747 6.19063 26.5471 5.34979 26.3139 5.16595C26.0687 4.97307 25.7967 4.88868 24.2748 5.27746C22.8516 5.63911 21.0577 6.38954 19.1561 7.18517C18.1216 7.61915 17.0483 8.06821 15.9331 8.49917L12.8355 9.69865H12.8385Z" fill="black" style="fill:black;fill-opacity:1;"/>
<path d="M17.2068 22.5165H13.033C12.9253 22.5165 12.8386 22.4291 12.8386 22.3206V13.65C12.8386 13.5686 12.8895 13.4933 12.9672 13.4661L17.1411 11.9593C17.2666 11.9141 17.4012 12.0075 17.4012 12.1431V22.3206C17.4012 22.4291 17.3145 22.5165 17.2068 22.5165Z" fill="black" style="fill:black;fill-opacity:1;"/>
<path d="M4.80184 18.9843C6.31769 18.9843 7.54654 17.7457 7.54654 16.2177C7.54654 14.6897 6.31769 13.451 4.80184 13.451C3.28598 13.451 2.05713 14.6897 2.05713 16.2177C2.05713 17.7457 3.28598 18.9843 4.80184 18.9843Z" fill="black" style="fill:black;fill-opacity:1;"/>
<path d="M25.4378 18.9843C26.9537 18.9843 28.1825 17.7457 28.1825 16.2177C28.1825 14.6897 26.9537 13.451 25.4378 13.451C23.922 13.451 22.6931 14.6897 22.6931 16.2177C22.6931 17.7457 23.922 18.9843 25.4378 18.9843Z" fill="black" style="fill:black;fill-opacity:1;"/>
<path d="M12.8385 9.69865V6.35337C12.8385 5.18102 12.71 4.93088 12.5425 4.75608C12.4469 4.65663 11.8608 4.34319 9.35831 5.17499C7.34613 5.84103 4.93928 6.99832 2.38891 8.22492L1.96435 8.42986L0 4.27689L0.421573 4.07497C6.41329 1.19381 11.5888 -1.29556 14.9524 0.844214C15.661 1.29327 16.2141 1.89903 16.6177 2.65549C16.7702 2.94179 17.1081 3.06536 17.4041 2.93878C17.4041 2.93878 17.4071 2.93878 17.4101 2.93878C21.9786 1.02504 25.9252 -0.626502 28.8493 1.34149C30.6582 2.55905 31.5372 4.85553 31.5372 8.36054H26.9747C26.9747 6.19063 26.5471 5.34979 26.3139 5.16595C26.0687 4.97307 25.7967 4.88868 24.2748 5.27746C22.8516 5.63911 21.0577 6.38954 19.1561 7.18517C18.1216 7.61915 17.0483 8.06821 15.9331 8.49917L12.8355 9.69865H12.8385Z" fill="black" style="fill:black;fill-opacity:1;"/>
<path d="M17.2068 22.5165H13.033C12.9253 22.5165 12.8386 22.4291 12.8386 22.3206V13.65C12.8386 13.5686 12.8895 13.4933 12.9672 13.4661L17.1411 11.9593C17.2666 11.9141 17.4012 12.0075 17.4012 12.1431V22.3206C17.4012 22.4291 17.3145 22.5165 17.2068 22.5165Z" fill="black" style="fill:black;fill-opacity:1;"/>
<path d="M4.80184 18.9843C6.31769 18.9843 7.54654 17.7457 7.54654 16.2177C7.54654 14.6897 6.31769 13.451 4.80184 13.451C3.28598 13.451 2.05713 14.6897 2.05713 16.2177C2.05713 17.7457 3.28598 18.9843 4.80184 18.9843Z" fill="black" style="fill:black;fill-opacity:1;"/>
<path d="M25.4378 18.9843C26.9537 18.9843 28.1825 17.7457 28.1825 16.2177C28.1825 14.6897 26.9537 13.451 25.4378 13.451C23.922 13.451 22.6931 14.6897 22.6931 16.2177C22.6931 17.7457 23.922 18.9843 25.4378 18.9843Z" fill="black" style="fill:black;fill-opacity:1;"/>
<path d="M120.818 12.3842C122.379 13.1256 123.159 14.3974 123.159 16.2026C123.159 17.6673 122.672 18.7824 121.7 19.5479C120.728 20.3104 119.461 20.6931 117.9 20.6931H112.114C112.037 20.6931 111.974 20.666 111.92 20.6117C111.866 20.5575 111.839 20.4912 111.839 20.4159V4.77141C111.839 4.69305 111.866 4.62976 111.92 4.57551C111.974 4.52126 112.04 4.49414 112.114 4.49414H117.717C119.386 4.49414 120.671 4.85579 121.574 5.58211C122.477 6.30843 122.929 7.40242 122.929 8.87012C122.929 10.4915 122.223 11.6157 120.815 12.2486C120.722 12.2938 120.722 12.342 120.815 12.3872L120.818 12.3842ZM114.503 6.92323V11.2058C114.503 11.2841 114.542 11.3203 114.617 11.3203H117.717C118.528 11.3203 119.168 11.1244 119.634 10.7296C120.1 10.3348 120.334 9.79234 120.334 9.09917C120.334 8.40601 120.1 7.83038 119.634 7.4205C119.168 7.01063 118.528 6.8057 117.717 6.8057H114.617C114.539 6.8057 114.503 6.84488 114.503 6.92022V6.92323ZM119.795 17.7095C120.262 17.2785 120.495 16.6908 120.495 15.9495C120.495 15.2081 120.259 14.6023 119.783 14.1774C119.308 13.7524 118.665 13.5415 117.855 13.5415H114.617C114.539 13.5415 114.503 13.5806 114.503 13.656V18.2399C114.503 18.3183 114.542 18.3544 114.617 18.3544H117.9C118.695 18.3544 119.326 18.1374 119.795 17.7065V17.7095Z" fill="black" style="fill:black;fill-opacity:1;"/>
<path d="M132.212 8.94852C132.266 8.89427 132.332 8.86715 132.407 8.86715H134.497C134.571 8.86715 134.637 8.89427 134.691 8.94852C134.745 9.00277 134.772 9.06907 134.772 9.14442V20.4159C134.772 20.4942 134.745 20.5575 134.691 20.6118C134.637 20.666 134.571 20.6932 134.497 20.6932H132.407C132.329 20.6932 132.266 20.666 132.212 20.6118C132.159 20.5575 132.132 20.4912 132.132 20.4159V19.6745C132.132 19.6293 132.117 19.5961 132.087 19.5811C132.057 19.566 132.024 19.5811 131.994 19.6263C131.366 20.443 130.424 20.8529 129.169 20.8529C128.006 20.8529 127.028 20.5153 126.242 19.8342C125.452 19.1561 125.058 18.1917 125.058 16.941V9.1414C125.058 9.06304 125.085 8.99975 125.138 8.94551C125.192 8.89126 125.258 8.86414 125.333 8.86414H127.447C127.524 8.86414 127.587 8.89126 127.641 8.94551C127.695 8.99975 127.722 9.06606 127.722 9.1414V16.1785C127.722 16.9049 127.91 17.4835 128.284 17.9145C128.657 18.3454 129.184 18.5624 129.856 18.5624C130.529 18.5624 131.097 18.3454 131.51 17.9145C131.922 17.4835 132.129 16.9049 132.129 16.1785V9.1414C132.129 9.06304 132.156 8.99975 132.209 8.94551L132.212 8.94852Z" fill="black" style="fill:black;fill-opacity:1;"/>
<path d="M144.462 4.57551C144.516 4.52126 144.582 4.49414 144.656 4.49414H146.77C146.848 4.49414 146.911 4.52126 146.965 4.57551C147.018 4.62976 147.045 4.69606 147.045 4.77141V20.4189C147.045 20.4972 147.018 20.5605 146.965 20.6148C146.911 20.669 146.845 20.6961 146.77 20.6961H144.656C144.579 20.6961 144.516 20.669 144.462 20.6148C144.408 20.5605 144.381 20.4942 144.381 20.4189V19.7257C144.381 19.6805 144.366 19.6473 144.336 19.6323C144.307 19.6172 144.274 19.6323 144.244 19.6775C143.571 20.4791 142.689 20.88 141.604 20.88C140.518 20.88 139.597 20.5937 138.847 20.0241C138.097 19.4545 137.552 18.6588 137.218 17.6402C136.942 16.7752 136.805 15.8108 136.805 14.747C136.805 13.6831 136.933 12.7097 137.197 11.9231C137.531 10.9044 138.076 10.1088 138.826 9.53918C139.577 8.96958 140.518 8.68327 141.652 8.68327C142.707 8.68327 143.571 9.06903 144.247 9.84056C144.277 9.8707 144.307 9.88275 144.339 9.87672C144.369 9.87069 144.384 9.84056 144.384 9.79535V4.77141C144.384 4.69305 144.411 4.62976 144.465 4.57551H144.462ZM144.357 14.7681C144.357 13.5656 144.166 12.6464 143.783 12.0135C143.371 11.3354 142.788 10.9948 142.037 10.9948C141.287 10.9948 140.644 11.3203 140.201 11.9683C139.741 12.6464 139.514 13.5897 139.514 14.7922C139.514 15.8711 139.696 16.7602 140.064 17.4533C140.491 18.1947 141.143 18.5654 142.016 18.5654C142.797 18.5654 143.401 18.1947 143.831 17.4533C144.184 16.8204 144.36 15.9253 144.36 14.7681H144.357Z" fill="black" style="fill:black;fill-opacity:1;"/>
<path d="M156.753 4.57551C156.807 4.52126 156.873 4.49414 156.948 4.49414H159.061C159.139 4.49414 159.202 4.52126 159.256 4.57551C159.31 4.62976 159.337 4.69606 159.337 4.77141V20.4189C159.337 20.4972 159.31 20.5605 159.256 20.6148C159.202 20.669 159.136 20.6961 159.061 20.6961H156.948C156.87 20.6961 156.807 20.669 156.753 20.6148C156.699 20.5605 156.673 20.4942 156.673 20.4189V19.7257C156.673 19.6805 156.658 19.6473 156.628 19.6323C156.598 19.6172 156.565 19.6323 156.535 19.6775C155.862 20.4791 154.98 20.88 153.895 20.88C152.81 20.88 151.889 20.5937 151.138 20.0241C150.388 19.4545 149.844 18.6588 149.509 17.6402C149.234 16.7752 149.096 15.8108 149.096 14.747C149.096 13.6831 149.225 12.7097 149.488 11.9231C149.826 10.9044 150.367 10.1088 151.117 9.53918C151.868 8.96958 152.81 8.68327 153.943 8.68327C154.998 8.68327 155.862 9.06903 156.538 9.84056C156.568 9.8707 156.598 9.88275 156.631 9.87672C156.661 9.87069 156.676 9.84056 156.676 9.79535V4.77141C156.676 4.69305 156.702 4.62976 156.756 4.57551H156.753ZM156.652 14.7681C156.652 13.5656 156.46 12.6464 156.078 12.0135C155.665 11.3354 155.082 10.9948 154.331 10.9948C153.581 10.9948 152.938 11.3203 152.496 11.9683C152.035 12.6464 151.808 13.5897 151.808 14.7922C151.808 15.8711 151.99 16.7602 152.358 17.4533C152.786 18.1947 153.437 18.5654 154.311 18.5654C155.091 18.5654 155.695 18.1947 156.125 17.4533C156.478 16.8204 156.655 15.9253 156.655 14.7681H156.652Z" fill="black" style="fill:black;fill-opacity:1;"/>
<path d="M161.334 25.2198C161.304 25.1655 161.289 25.0992 161.289 25.0239V23.3573C161.289 23.2789 161.316 23.2156 161.37 23.1614C161.423 23.1071 161.489 23.08 161.564 23.08H161.588C162.216 23.0649 162.706 22.9986 163.059 22.8841C163.412 22.7696 163.702 22.5496 163.932 22.2241C164.162 21.8986 164.368 21.4134 164.551 20.7654C164.566 20.7353 164.566 20.6871 164.551 20.6268L160.763 9.17147C160.748 9.14133 160.739 9.10216 160.739 9.05695C160.739 8.91832 160.817 8.849 160.969 8.849H163.22C163.388 8.849 163.495 8.92736 163.543 9.08106L165.839 17.2273C165.854 17.2725 165.878 17.2966 165.908 17.2966C165.938 17.2966 165.962 17.2725 165.977 17.2273L168.273 9.08106C168.318 8.92736 168.426 8.849 168.596 8.849H170.779C170.871 8.849 170.934 8.87612 170.973 8.93037C171.012 8.98462 171.015 9.06599 170.985 9.17449L166.943 21.3501C166.56 22.4441 166.186 23.2638 165.819 23.8033C165.451 24.3428 164.949 24.7285 164.315 24.9606C163.681 25.1926 162.781 25.3072 161.618 25.3072H161.456C161.411 25.3072 161.373 25.28 161.343 25.2258L161.334 25.2198Z" fill="black" style="fill:black;fill-opacity:1;"/>
</g>
<defs>
<clipPath id="clip0_461_2319">
<rect width="171" height="25.2614" fill="white" style="fill:white;fill-opacity:1;" transform="translate(0 0.0397949)"/>
</clipPath>
</defs>
</svg>
